<svg width="15" height="15" viewBox="0 0 15 15" fill="none" xmlns="http://www.w3.org/2000/svg">
<path d="M14.53 1.52981L2.81006 13.2498H11C11.414 13.2498 11.75 13.5858 11.75 13.9998C11.75 14.4138 11.414 14.7498 11 14.7498H1C0.902 14.7498 0.804891 14.7297 0.712891 14.6917C0.529891 14.6157 0.384105 14.4699 0.308105 14.2869C0.270105 14.1949 0.25 14.0978 0.25 13.9998V3.99978C0.25 3.58578 0.586 3.24978 1 3.24978C1.414 3.24978 1.75 3.58578 1.75 3.99978V12.1887L13.47 0.468773C13.763 0.175773 14.238 0.175773 14.531 0.468773C14.824 0.761773 14.823 1.23681 14.53 1.52981Z" fill="#43A048"/>
</svg>
