<svg width="20" height="20" viewBox="0 0 20 20" fill="none" xmlns="http://www.w3.org/2000/svg">
<g clip-path="url(#clip0_5597_14757)">
<path d="M12.5002 5.83314L7.08357 11.2498C6.75205 11.5813 6.56581 12.031 6.56581 12.4998C6.56581 12.9686 6.75205 13.4183 7.08357 13.7498C7.41509 14.0813 7.86473 14.2676 8.33357 14.2676C8.80242 14.2676 9.25205 14.0813 9.58357 13.7498L15.0002 8.33314C15.6633 7.6701 16.0358 6.77082 16.0358 5.83314C16.0358 4.89546 15.6633 3.99618 15.0002 3.33314C14.3372 2.6701 13.4379 2.29761 12.5002 2.29761C11.5626 2.29761 10.6633 2.6701 10.0002 3.33314L4.58357 8.74981C3.58901 9.74437 3.03027 11.0933 3.03027 12.4998C3.03027 13.9063 3.58901 15.2552 4.58357 16.2498C5.57814 17.2444 6.92705 17.8031 8.33357 17.8031C9.7401 17.8031 11.089 17.2444 12.0836 16.2498L17.5002 10.8331" stroke="#919BB3" stroke-width="1.66667" stroke-linecap="round" stroke-linejoin="round"/>
</g>
<defs>
<clipPath id="clip0_5597_14757">
<rect width="20" height="20" fill="white"/>
</clipPath>
</defs>
</svg>
