<svg width="20" height="20" viewBox="0 0 20 20" fill="none" xmlns="http://www.w3.org/2000/svg">
<g clip-path="url(#clip0_5597_14761)">
<path d="M4.16667 5.83301H5C5.44203 5.83301 5.86595 5.65741 6.17851 5.34485C6.49107 5.03229 6.66667 4.60837 6.66667 4.16634C6.66667 3.94533 6.75446 3.73337 6.91074 3.57709C7.06702 3.42081 7.27899 3.33301 7.5 3.33301H12.5C12.721 3.33301 12.933 3.42081 13.0893 3.57709C13.2455 3.73337 13.3333 3.94533 13.3333 4.16634C13.3333 4.60837 13.5089 5.03229 13.8215 5.34485C14.134 5.65741 14.558 5.83301 15 5.83301H15.8333C16.2754 5.83301 16.6993 6.0086 17.0118 6.32116C17.3244 6.63372 17.5 7.05765 17.5 7.49967V14.9997C17.5 15.4417 17.3244 15.8656 17.0118 16.1782C16.6993 16.4907 16.2754 16.6663 15.8333 16.6663H4.16667C3.72464 16.6663 3.30072 16.4907 2.98816 16.1782C2.67559 15.8656 2.5 15.4417 2.5 14.9997V7.49967C2.5 7.05765 2.67559 6.63372 2.98816 6.32116C3.30072 6.0086 3.72464 5.83301 4.16667 5.83301Z" stroke="#919BB3" stroke-width="1.66667" stroke-linecap="round" stroke-linejoin="round"/>
<path d="M7.5 10.833C7.5 11.496 7.76339 12.1319 8.23223 12.6008C8.70107 13.0696 9.33696 13.333 10 13.333C10.663 13.333 11.2989 13.0696 11.7678 12.6008C12.2366 12.1319 12.5 11.496 12.5 10.833C12.5 10.17 12.2366 9.53408 11.7678 9.06524C11.2989 8.5964 10.663 8.33301 10 8.33301C9.33696 8.33301 8.70107 8.5964 8.23223 9.06524C7.76339 9.53408 7.5 10.17 7.5 10.833Z" stroke="#919BB3" stroke-width="1.66667" stroke-linecap="round" stroke-linejoin="round"/>
</g>
<defs>
<clipPath id="clip0_5597_14761">
<rect width="20" height="20" fill="white"/>
</clipPath>
</defs>
</svg>
