<svg width="20" height="20" viewBox="0 0 20 20" fill="none" xmlns="http://www.w3.org/2000/svg">
<g clip-path="url(#clip0_3833_8499)">
<path d="M7.5 9.16675C7.5 9.82979 7.76339 10.4657 8.23223 10.9345C8.70107 11.4034 9.33696 11.6667 10 11.6667C10.663 11.6667 11.2989 11.4034 11.7678 10.9345C12.2366 10.4657 12.5 9.82979 12.5 9.16675C12.5 8.50371 12.2366 7.86782 11.7678 7.39898C11.2989 6.93014 10.663 6.66675 10 6.66675C9.33696 6.66675 8.70107 6.93014 8.23223 7.39898C7.76339 7.86782 7.5 8.50371 7.5 9.16675Z" stroke="#BDC3D1" stroke-width="2" stroke-linecap="round" stroke-linejoin="round"/>
<path d="M14.7138 13.8806L11.178 17.4164C10.8655 17.7286 10.4418 17.904 10.0001 17.904C9.55836 17.904 9.13469 17.7286 8.82218 17.4164L5.28551 13.8806C4.3532 12.9482 3.71829 11.7603 3.46108 10.4671C3.20388 9.17394 3.33592 7.83352 3.84051 6.61536C4.34511 5.39721 5.19959 4.35604 6.29591 3.62351C7.39223 2.89098 8.68115 2.5 9.99968 2.5C11.3182 2.5 12.6071 2.89098 13.7034 3.62351C14.7998 4.35604 15.6542 5.39721 16.1588 6.61536C16.6634 7.83352 16.7955 9.17394 16.5383 10.4671C16.2811 11.7603 15.6462 12.9482 14.7138 13.8806Z" stroke="#BDC3D1" stroke-width="2" stroke-linecap="round" stroke-linejoin="round"/>
</g>
<defs>
<clipPath id="clip0_3833_8499">
<rect width="20" height="20" fill="white"/>
</clipPath>
</defs>
</svg>
