<svg width="16" height="16" viewBox="0 0 16 16" fill="none" xmlns="http://www.w3.org/2000/svg">
<path d="M5.26677 14.2229L4.8725 14.8609L5.26677 14.2229ZM4.98074 14.0589L5.25687 13.3616L4.98074 14.0589ZM4.39748 14.071L4.58565 14.797L4.39748 14.071ZM4.6691 14.0118L4.72688 14.7596L4.6691 14.0118ZM1.94482 11.6183L1.21881 11.4301L1.94482 11.6183ZM2.00398 11.3464L2.75178 11.4038L2.00398 11.3464ZM1.79239 10.7494L1.15538 11.1452H1.15538L1.79239 10.7494ZM1.95635 11.0339L1.25958 11.3114L1.95635 11.0339ZM1.66706 13.2561L2.402 13.1065L1.66706 13.2561ZM2.7597 14.3487L2.90927 13.6138L2.7597 14.3487ZM5.23679 8.55014C4.82257 8.55014 4.48679 8.88592 4.48679 9.30014C4.48679 9.71435 4.82257 10.0501 5.23679 10.0501V8.55014ZM10.8366 10.0501C11.2508 10.0501 11.5866 9.71435 11.5866 9.30014C11.5866 8.88592 11.2508 8.55014 10.8366 8.55014V10.0501ZM5.23679 5.75025C4.82257 5.75025 4.48679 6.08603 4.48679 6.50025C4.48679 6.91446 4.82257 7.25025 5.23679 7.25025V5.75025ZM8.03668 7.25025C8.45089 7.25025 8.78668 6.91446 8.78668 6.50025C8.78668 6.08603 8.45089 5.75025 8.03668 5.75025V7.25025ZM3.59684 3.5805C6.03751 1.13983 9.99462 1.13983 12.4353 3.5805L13.4959 2.51984C10.4695 -0.506614 5.56264 -0.506614 2.53618 2.51984L3.59684 3.5805ZM12.4353 3.5805C14.876 6.02117 14.876 9.97828 12.4353 12.4189L13.4959 13.4796C16.5224 10.4532 16.5224 5.5463 13.4959 2.51984L12.4353 3.5805ZM2.4294 10.3535C1.70721 9.19137 1.61358 7.89401 1.90148 6.66898C2.19198 5.43292 2.86342 4.31393 3.59684 3.5805L2.53618 2.51984C1.6118 3.44422 0.797647 4.80942 0.441267 6.3258C0.0822978 7.8532 0.180506 9.57652 1.15538 11.1452L2.4294 10.3535ZM12.4353 12.4189C11.738 13.1162 10.6206 13.7884 9.3717 14.0872C8.13325 14.3834 6.82117 14.3018 5.66104 13.5849L4.8725 14.8609C6.44912 15.8352 8.19142 15.9118 9.72068 15.546C11.2395 15.1827 12.6031 14.3724 13.4959 13.4796L12.4353 12.4189ZM5.66104 13.5849C5.54308 13.512 5.39314 13.4155 5.25687 13.3616L4.70461 14.7562C4.67957 14.7463 4.6738 14.7407 4.71064 14.7622C4.74551 14.7825 4.79289 14.8117 4.8725 14.8609L5.66104 13.5849ZM4.58565 14.797C4.66006 14.7777 4.69944 14.7676 4.72815 14.7611C4.75411 14.7552 4.7474 14.758 4.72688 14.7596L4.61132 13.264C4.46683 13.2752 4.31844 13.3167 4.2093 13.345L4.58565 14.797ZM5.25687 13.3616C5.04076 13.276 4.84307 13.2461 4.61132 13.264L4.72688 14.7596C4.73648 14.7588 4.73857 14.7591 4.73545 14.759C4.7318 14.7589 4.72479 14.7585 4.71585 14.7572C4.70691 14.7558 4.7001 14.7541 4.69658 14.7531C4.69359 14.7523 4.69565 14.7527 4.70461 14.7562L5.25687 13.3616ZM2.67083 11.8065C2.69913 11.6973 2.74066 11.5487 2.75178 11.4038L1.25618 11.2891C1.25775 11.2686 1.26053 11.2619 1.25469 11.2877C1.24821 11.3164 1.2381 11.3557 1.21881 11.4301L2.67083 11.8065ZM1.15538 11.1452C1.20453 11.2243 1.23361 11.2712 1.25383 11.3057C1.27509 11.342 1.26948 11.3363 1.25958 11.3114L2.65313 10.7564C2.59875 10.6199 2.50218 10.4706 2.4294 10.3535L1.15538 11.1452ZM2.75178 11.4038C2.76959 11.1717 2.73926 10.9727 2.65313 10.7564L1.25958 11.3114C1.26302 11.3201 1.26339 11.322 1.26253 11.319C1.26154 11.3156 1.25988 11.3089 1.25855 11.3001C1.25722 11.2914 1.25681 11.2845 1.25673 11.2809C1.25665 11.2778 1.25689 11.2798 1.25618 11.2891L2.75178 11.4038ZM1.21881 11.4301C1.10738 11.86 1.01392 12.219 0.959151 12.5095C0.905039 12.7964 0.870286 13.1018 0.932128 13.4057L2.402 13.1065C2.3993 13.0933 2.38932 13.0199 2.43317 12.7874C2.47637 12.5584 2.55405 12.257 2.67083 11.8065L1.21881 11.4301ZM4.2093 13.345C3.75877 13.4617 3.45743 13.5394 3.22838 13.5826C2.99584 13.6265 2.92254 13.6165 2.90927 13.6138L2.61013 15.0837C2.914 15.1455 3.21938 15.1108 3.50634 15.0566C3.79678 15.0019 4.15576 14.9084 4.58565 14.797L4.2093 13.345ZM0.932128 13.4057C1.10416 14.251 1.76481 14.9116 2.61013 15.0837L2.90927 13.6138C2.65372 13.5618 2.454 13.3621 2.402 13.1065L0.932128 13.4057ZM5.23679 10.0501H10.8366V8.55014H5.23679V10.0501ZM5.23679 7.25025H8.03668V5.75025H5.23679V7.25025Z" fill="#1D272F"/>
</svg>
