<svg width="14" height="14" viewBox="0 0 14 14" fill="none" xmlns="http://www.w3.org/2000/svg">
<path d="M9.66667 4.33333L11 3M11 3L12.3333 1.66667M11 3L9.66667 1.66667M11 3L12.3333 4.33333M2.33333 1C1.97971 1 1.64057 1.14048 1.39052 1.39052C1.14048 1.64057 1 1.97971 1 2.33333V3C1 8.52267 5.47733 13 11 13H11.6667C12.0203 13 12.3594 12.8595 12.6095 12.6095C12.8595 12.3594 13 12.0203 13 11.6667V9.48C12.9999 9.34014 12.9558 9.20385 12.874 9.09043C12.7921 8.97701 12.6767 8.8922 12.544 8.848L9.54867 7.84933C9.39644 7.79873 9.23107 7.80472 9.0829 7.86619C8.93473 7.92766 8.8137 8.0405 8.742 8.184L7.98867 9.68867C6.35619 8.95096 5.04875 7.64328 4.31133 6.01067L5.816 5.25867C5.9595 5.18697 6.07234 5.06593 6.13381 4.91776C6.19528 4.76959 6.20127 4.60423 6.15067 4.452L5.152 1.45533C5.10765 1.32265 5.02269 1.20729 4.90915 1.12557C4.7956 1.04385 4.65923 0.99992 4.51933 1H2.33333Z" stroke="#1D272F" stroke-width="1.5" stroke-linecap="round" stroke-linejoin="round"/>
</svg>
