<svg width="20" height="20" viewBox="0 0 20 20" fill="none" xmlns="http://www.w3.org/2000/svg">
<g clip-path="url(#clip0_3833_8490)">
<path d="M7.5 10C7.5 10.663 7.76339 11.2989 8.23223 11.7678C8.70107 12.2366 9.33696 12.5 10 12.5C10.663 12.5 11.2989 12.2366 11.7678 11.7678C12.2366 11.2989 12.5 10.663 12.5 10C12.5 9.33696 12.2366 8.70107 11.7678 8.23223C11.2989 7.76339 10.663 7.5 10 7.5C9.33696 7.5 8.70107 7.76339 8.23223 8.23223C7.76339 8.70107 7.5 9.33696 7.5 10Z" stroke="#BDC3D1" stroke-width="2" stroke-linecap="round" stroke-linejoin="round"/>
<path d="M3.33301 10.0002C3.33301 11.7683 4.03539 13.464 5.28563 14.7142C6.53587 15.9645 8.23156 16.6668 9.99967 16.6668C11.7678 16.6668 13.4635 15.9645 14.7137 14.7142C15.964 13.464 16.6663 11.7683 16.6663 10.0002C16.6663 8.23205 15.964 6.53636 14.7137 5.28612C13.4635 4.03588 11.7678 3.3335 9.99967 3.3335C8.23156 3.3335 6.53587 4.03588 5.28563 5.28612C4.03539 6.53636 3.33301 8.23205 3.33301 10.0002Z" stroke="#BDC3D1" stroke-width="2" stroke-linecap="round" stroke-linejoin="round"/>
<path d="M10 1.66675V3.33341" stroke="#BDC3D1" stroke-width="2" stroke-linecap="round" stroke-linejoin="round"/>
<path d="M10 16.6667V18.3334" stroke="#BDC3D1" stroke-width="2" stroke-linecap="round" stroke-linejoin="round"/>
<path d="M16.667 10H18.3337" stroke="#BDC3D1" stroke-width="2" stroke-linecap="round" stroke-linejoin="round"/>
<path d="M1.66699 10H3.33366" stroke="#BDC3D1" stroke-width="2" stroke-linecap="round" stroke-linejoin="round"/>
</g>
<defs>
<clipPath id="clip0_3833_8490">
<rect width="20" height="20" fill="white"/>
</clipPath>
</defs>
</svg>
