<svg width="18" height="21" viewBox="0 0 18 21" fill="none" xmlns="http://www.w3.org/2000/svg">
<path d="M6 9C6 9.79565 6.31607 10.5587 6.87868 11.1213C7.44129 11.6839 8.20435 12 9 12C9.79565 12 10.5587 11.6839 11.1213 11.1213C11.6839 10.5587 12 9.79565 12 9C12 8.20435 11.6839 7.44129 11.1213 6.87868C10.5587 6.31607 9.79565 6 9 6C8.20435 6 7.44129 6.31607 6.87868 6.87868C6.31607 7.44129 6 8.20435 6 9Z" stroke="#0B204C" stroke-width="2" stroke-linecap="round" stroke-linejoin="round"/>
<path d="M14.657 14.6572L10.414 18.9002C10.039 19.2748 9.53059 19.4853 9.0005 19.4853C8.47042 19.4853 7.96202 19.2748 7.587 18.9002L3.343 14.6572C2.22422 13.5384 1.46234 12.1129 1.15369 10.5611C0.845043 9.00922 1.00349 7.40071 1.60901 5.93893C2.21452 4.47714 3.2399 3.22774 4.55548 2.3487C5.87107 1.46967 7.41777 1.00049 9 1.00049C10.5822 1.00049 12.1289 1.46967 13.4445 2.3487C14.7601 3.22774 15.7855 4.47714 16.391 5.93893C16.9965 7.40071 17.155 9.00922 16.8463 10.5611C16.5377 12.1129 15.7758 13.5384 14.657 14.6572Z" stroke="#0B204C" stroke-width="2" stroke-linecap="round" stroke-linejoin="round"/>
</svg>
