<svg width="24" height="24" viewBox="0 0 24 24" fill="none" xmlns="http://www.w3.org/2000/svg">
<g clip-path="url(#clip0_5597_14751)">
<path d="M4.69817 4.03397L21.0002 12L4.69817 19.966C4.60512 20.0017 4.50354 20.009 4.40633 19.987C4.30911 19.9649 4.22065 19.9144 4.15217 19.842C4.08169 19.7676 4.03317 19.6752 4.01199 19.5749C3.99081 19.4747 3.99779 19.3705 4.03217 19.274L6.50017 12L4.03217 4.72597C3.99779 4.62944 3.99081 4.52528 4.01199 4.42503C4.03317 4.32478 4.08169 4.23234 4.15217 4.15797C4.22065 4.08552 4.30911 4.03506 4.40633 4.01298C4.50354 3.9909 4.60512 3.99821 4.69817 4.03397Z" stroke="#016A70" stroke-width="2" stroke-linecap="round" stroke-linejoin="round"/>
<path d="M6.5 12H21" stroke="#016A70" stroke-width="2" stroke-linecap="round" stroke-linejoin="round"/>
</g>
<defs>
<clipPath id="clip0_5597_14751">
<rect width="24" height="24" fill="white"/>
</clipPath>
</defs>
</svg>
