<svg width="24" height="24" viewBox="0 0 24 24" fill="none" xmlns="http://www.w3.org/2000/svg">
<path d="M15.0437 21.5597C11.3306 22.0132 7.56955 21.8839 3.89643 21.1764C3.72442 21.142 3.56981 21.0486 3.45931 20.9124C3.34881 20.7762 3.28934 20.6056 3.29118 20.4302V19.5077C3.29118 16.3194 5.88468 13.7259 9.07368 13.7259H12.3129C13.6767 13.7261 14.9969 14.2065 16.0419 15.0827C16.1793 15.1975 16.3565 15.2533 16.5348 15.2378C16.7132 15.2224 16.8781 15.1369 16.9937 15.0002C17.1087 14.8629 17.1646 14.6857 17.1491 14.5073C17.1337 14.3289 17.0481 14.1639 16.9112 14.0484C16.1348 13.3984 15.229 12.9208 14.2539 12.6474C15.1417 12.06 15.8702 11.2618 16.3744 10.3243C16.8786 9.38676 17.1429 8.33898 17.1437 7.27444C17.1437 3.71869 14.2509 0.825195 10.6944 0.825195C7.13793 0.825195 4.24443 3.71795 4.24443 7.27444C4.24503 8.33974 4.50962 9.38827 5.01456 10.3263C5.5195 11.2643 6.24903 12.0626 7.13793 12.6497C4.14393 13.4964 1.94043 16.2474 1.94043 19.5077V20.4302C1.94043 21.4457 2.65743 22.3172 3.64218 22.5032C5.93568 22.9494 8.30868 23.1752 10.6937 23.1752C12.1997 23.1752 13.7177 23.0822 15.1412 22.9052C15.5139 22.9052 15.8087 22.6029 15.8087 22.2302C15.8079 21.8297 15.4472 21.5184 15.0437 21.5597ZM5.59443 7.27369C5.59443 4.46194 7.88193 2.1752 10.6937 2.1752C13.5054 2.1752 15.7922 4.46194 15.7922 7.27369C15.7922 10.0854 13.5054 12.3729 10.6937 12.3729C7.88193 12.3729 5.59443 10.0854 5.59443 7.27369Z" fill="#1D272F"/>
<path d="M20.1813 19.4184C19.7433 19.4184 19.3458 19.5751 19.0256 19.8271L17.1498 18.7156C17.1663 18.6144 17.1813 18.5131 17.1813 18.4074C17.1813 18.3016 17.1671 18.1996 17.1498 18.0991L19.0248 16.9876C19.3527 17.2509 19.7601 17.3952 20.1806 17.3971C21.2163 17.3971 22.0593 16.5541 22.0593 15.5184C22.0593 14.4826 21.2163 13.6396 20.1806 13.6396C19.1448 13.6396 18.3018 14.4826 18.3018 15.5184C18.3018 15.6241 18.3161 15.7269 18.3333 15.8281L16.4591 16.9389C16.1311 16.6753 15.7234 16.5306 15.3026 16.5286C14.2668 16.5286 13.4238 17.3716 13.4238 18.4074C13.4238 19.4431 14.2668 20.2861 15.3026 20.2861C15.7406 20.2861 16.1396 20.1286 16.4591 19.8759L18.3333 20.9866C18.314 21.0891 18.3035 21.1929 18.3018 21.2971C18.3018 22.3329 19.1448 23.1759 20.1806 23.1759C21.2163 23.1759 22.0593 22.3329 22.0593 21.2971C22.0593 20.2614 21.2171 19.4184 20.1813 19.4184ZM20.1813 14.9896C20.3214 14.9896 20.4557 15.0453 20.5547 15.1443C20.6537 15.2433 20.7093 15.3776 20.7093 15.5176C20.7093 15.6577 20.6537 15.792 20.5547 15.891C20.4557 15.99 20.3214 16.0456 20.1813 16.0456C20.0413 16.0456 19.907 15.99 19.808 15.891C19.709 15.792 19.6533 15.6577 19.6533 15.5176C19.6533 15.3776 19.709 15.2433 19.808 15.1443C19.907 15.0453 20.0413 14.9896 20.1813 14.9896ZM15.3026 18.9354C15.1625 18.9354 15.0282 18.8798 14.9292 18.7808C14.8302 18.6817 14.7746 18.5474 14.7746 18.4074C14.7746 18.2674 14.8302 18.1331 14.9292 18.034C15.0282 17.935 15.1625 17.8794 15.3026 17.8794C15.4426 17.8794 15.5769 17.935 15.6759 18.034C15.7749 18.1331 15.8306 18.2674 15.8306 18.4074C15.8306 18.5474 15.7749 18.6817 15.6759 18.7808C15.5769 18.8798 15.4426 18.9354 15.3026 18.9354ZM20.1813 21.8251C20.0413 21.8251 19.907 21.7695 19.808 21.6705C19.709 21.5715 19.6533 21.4372 19.6533 21.2971C19.6533 21.1571 19.709 21.0228 19.808 20.9238C19.907 20.8248 20.0413 20.7691 20.1813 20.7691C20.3214 20.7691 20.4557 20.8248 20.5547 20.9238C20.6537 21.0228 20.7093 21.1571 20.7093 21.2971C20.7093 21.4372 20.6537 21.5715 20.5547 21.6705C20.4557 21.7695 20.3214 21.8251 20.1813 21.8251Z" fill="#1D272F"/>
</svg>
