<svg width="46" height="46" viewBox="0 0 46 46" fill="none" xmlns="http://www.w3.org/2000/svg">
<rect opacity="0.1" x="1.5" y="1.5" width="43" height="43" rx="21.5" fill="#304FFE" stroke="white" stroke-width="3"/>
<path d="M21.3027 29.0232C21.7193 28.9351 24.2578 28.9351 24.6743 29.0232C25.0305 29.1055 25.4156 29.2977 25.4156 29.7174C25.3949 30.1169 25.1605 30.471 24.8367 30.696C24.4168 31.0233 23.924 31.2306 23.4088 31.3053C23.1239 31.3422 22.844 31.3431 22.569 31.3053C22.053 31.2306 21.5602 31.0233 21.1412 30.6951C20.8165 30.471 20.5821 30.1169 20.5614 29.7174C20.5614 29.2977 20.9465 29.1055 21.3027 29.0232ZM23.0377 14.6667C24.7712 14.6667 26.5419 15.4892 27.5937 16.8539C28.2762 17.7326 28.5892 18.6105 28.5892 19.9752V20.3303C28.5892 21.3769 28.8659 21.9938 29.4746 22.7046C29.9359 23.2284 30.0834 23.9007 30.0834 24.63C30.0834 25.3585 29.844 26.0501 29.3645 26.6116C28.7367 27.2847 27.8513 27.7144 26.9477 27.7891C25.6383 27.9008 24.3281 27.9948 23.0004 27.9948C21.672 27.9948 20.3626 27.9385 19.0531 27.7891C18.1487 27.7144 17.2634 27.2847 16.6364 26.6116C16.1569 26.0501 15.9167 25.3585 15.9167 24.63C15.9167 23.9007 16.0649 23.2284 16.5254 22.7046C17.1532 21.9938 17.4116 21.3769 17.4116 20.3303V19.9752C17.4116 18.5736 17.7611 17.6571 18.4808 16.7599C19.5509 15.4514 21.2661 14.6667 22.9632 14.6667H23.0377Z" fill="#304FFE"/>
</svg>
