<svg width="18" height="18" viewBox="0 0 18 18" fill="none" xmlns="http://www.w3.org/2000/svg">
<g id="Frame" clip-path="url(#clip0_5596_27561)">
<path id="Vector" d="M13.773 3.47704C15.0123 4.71614 15.7211 6.38863 15.7495 8.14085C15.7779 9.89308 15.1237 11.5877 13.9253 12.8663L13.773 13.0238L10.5908 16.2053C10.187 16.6088 9.64495 16.8438 9.07441 16.8626C8.50387 16.8814 7.94751 16.6826 7.51804 16.3065L7.41004 16.2053L4.22704 13.023C2.96116 11.7572 2.25 10.0403 2.25 8.25004C2.25 6.45982 2.96116 4.74292 4.22704 3.47704C5.49292 2.21116 7.20982 1.5 9.00004 1.5C10.7903 1.5 12.5072 2.21116 13.773 3.47704ZM9.00004 6.00004C8.70457 6.00004 8.41199 6.05824 8.139 6.17131C7.86602 6.28439 7.61798 6.45012 7.40905 6.65905C7.20012 6.86798 7.03439 7.11602 6.92131 7.389C6.80824 7.66199 6.75004 7.95457 6.75004 8.25004C6.75004 8.54552 6.80824 8.8381 6.92131 9.11108C7.03439 9.38406 7.20012 9.6321 7.40905 9.84103C7.61798 10.05 7.86602 10.2157 8.139 10.3288C8.41199 10.4418 8.70457 10.5 9.00004 10.5C9.59678 10.5 10.1691 10.263 10.591 9.84103C11.013 9.41908 11.25 8.84678 11.25 8.25004C11.25 7.6533 11.013 7.08101 10.591 6.65905C10.1691 6.23709 9.59678 6.00004 9.00004 6.00004Z" fill="#919BB3"/>
</g>
<defs>
<clipPath id="clip0_5596_27561">
<rect width="18" height="18" fill="white"/>
</clipPath>
</defs>
</svg>
