<svg width="20" height="20" viewBox="0 0 20 20" fill="none" xmlns="http://www.w3.org/2000/svg">
<path d="M1 10C1 11.1819 1.23279 12.3522 1.68508 13.4442C2.13738 14.5361 2.80031 15.5282 3.63604 16.364C4.47177 17.1997 5.46392 17.8626 6.55585 18.3149C7.64778 18.7672 8.8181 19 10 19C11.1819 19 12.3522 18.7672 13.4442 18.3149C14.5361 17.8626 15.5282 17.1997 16.364 16.364C17.1997 15.5282 17.8626 14.5361 18.3149 13.4442C18.7672 12.3522 19 11.1819 19 10C19 8.8181 18.7672 7.64778 18.3149 6.55585C17.8626 5.46392 17.1997 4.47177 16.364 3.63604C15.5282 2.80031 14.5361 2.13738 13.4442 1.68508C12.3522 1.23279 11.1819 1 10 1C8.8181 1 7.64778 1.23279 6.55585 1.68508C5.46392 2.13738 4.47177 2.80031 3.63604 3.63604C2.80031 4.47177 2.13738 5.46392 1.68508 6.55585C1.23279 7.64778 1 8.8181 1 10Z" stroke="#016A70" stroke-width="2" stroke-linecap="round" stroke-linejoin="round"/>
<path d="M10 15V15.01" stroke="#016A70" stroke-width="2" stroke-linecap="round" stroke-linejoin="round"/>
<path d="M10 11.5002C9.98159 11.1755 10.0692 10.8537 10.2495 10.5832C10.4299 10.3126 10.6933 10.108 11 10.0002C11.3759 9.85643 11.7132 9.6274 11.9856 9.33112C12.2579 9.03484 12.4577 8.67939 12.5693 8.29275C12.6809 7.90612 12.7013 7.49886 12.6287 7.10303C12.5562 6.7072 12.3928 6.33362 12.1513 6.01168C11.9099 5.68974 11.597 5.42825 11.2373 5.24778C10.8776 5.06732 10.4809 4.97281 10.0785 4.97169C9.67611 4.97057 9.27892 5.06288 8.91824 5.24135C8.55756 5.41982 8.24323 5.67957 8 6.00017" stroke="#016A70" stroke-width="2" stroke-linecap="round" stroke-linejoin="round"/>
</svg>
