<svg width="46" height="35" viewBox="0 0 46 35" fill="none" xmlns="http://www.w3.org/2000/svg">
<path d="M8.20799 34.9224V32.5995C8.20799 31.7088 7.66584 31.1282 6.73656 31.1282C6.27201 31.1282 5.76866 31.2831 5.42016 31.7864C5.14926 31.3605 4.76213 31.1282 4.18136 31.1282C3.79406 31.1282 3.40711 31.2443 3.09723 31.6702V31.2056H2.28418V34.9224H3.09723V32.8704C3.09723 32.2123 3.44573 31.9025 3.98788 31.9025C4.52968 31.9025 4.80093 32.251 4.80093 32.8704V34.9224H5.61399V32.8704C5.61399 32.2123 6.00093 31.9025 6.50429 31.9025C7.04644 31.9025 7.31734 32.251 7.31734 32.8704V34.9224H8.20799ZM20.2487 31.2056H18.9325V30.0829H18.1195V31.2056H17.3838V31.9411H18.1193V33.6448C18.1193 34.4966 18.4678 34.9998 19.3971 34.9998C19.7456 34.9998 20.1325 34.8838 20.4038 34.7289L20.1713 34.0319C19.939 34.1868 19.6681 34.2256 19.4745 34.2256C19.0874 34.2256 18.9325 33.9933 18.9325 33.606V31.9411H20.2487V31.2056ZM27.1404 31.128C26.6759 31.128 26.3662 31.3605 26.1725 31.6702V31.2056H25.3595V34.9224H26.1725V32.8317C26.1725 32.2123 26.4434 31.8638 26.9468 31.8638C27.1016 31.8638 27.2953 31.9026 27.4501 31.9413L27.6824 31.167C27.5276 31.1282 27.2953 31.1282 27.1404 31.1282V31.128ZM16.7256 31.5153C16.3383 31.2443 15.7963 31.1282 15.2156 31.1282C14.2865 31.1282 13.6671 31.5928 13.6671 32.3284C13.6671 32.948 14.1316 33.2963 14.9447 33.4125L15.3318 33.4513C15.7577 33.5286 15.99 33.6448 15.99 33.8384C15.99 34.1093 15.6803 34.303 15.1381 34.303C14.5962 34.303 14.1702 34.1093 13.8992 33.9159L13.512 34.5353C13.938 34.845 14.5187 34.9998 15.0993 34.9998C16.1835 34.9998 16.8031 34.4966 16.8031 33.7996C16.8031 33.1414 16.2997 32.7929 15.5253 32.6769L15.1381 32.6381C14.7896 32.5993 14.5187 32.522 14.5187 32.2898C14.5187 32.0187 14.7896 31.8638 15.2156 31.8638C15.6803 31.8638 16.1448 32.0573 16.3771 32.1735L16.7256 31.5153ZM38.3297 31.1282C37.865 31.1282 37.5553 31.3605 37.3616 31.6702V31.2056H36.5486V34.9224H37.3616V32.8317C37.3616 32.2123 37.6327 31.8638 38.1359 31.8638C38.2909 31.8638 38.4845 31.9026 38.6394 31.9413L38.8717 31.167C38.7168 31.1282 38.4845 31.1282 38.3297 31.1282ZM27.9535 33.064C27.9535 34.1868 28.7277 34.9998 29.9281 34.9998C30.4701 34.9998 30.8572 34.8838 31.2443 34.5741L30.8572 33.9159C30.5475 34.1481 30.2378 34.2642 29.8893 34.2642C29.2311 34.2642 28.7665 33.7996 28.7665 33.064C28.7665 32.3672 29.2311 31.9025 29.8893 31.8638C30.2378 31.8638 30.5475 31.9799 30.8572 32.2123L31.2443 31.5541C30.8572 31.2443 30.4701 31.1282 29.9281 31.1282C28.7277 31.1282 27.9535 31.9413 27.9535 33.064ZM35.4646 33.064V31.2056H34.6516V31.6702C34.3805 31.3219 33.9934 31.1282 33.49 31.1282C32.4447 31.1282 31.6316 31.9413 31.6316 33.064C31.6316 34.1868 32.4447 34.9998 33.49 34.9998C34.032 34.9998 34.4193 34.8063 34.6516 34.4578V34.9224H35.4646V33.064ZM32.4833 33.064C32.4833 32.4058 32.9092 31.8638 33.6061 31.8638C34.2643 31.8638 34.729 32.3672 34.729 33.064C34.729 33.7222 34.2643 34.2642 33.6061 34.2642C32.9092 34.2254 32.4833 33.7222 32.4833 33.064ZM22.7655 31.1282C21.6814 31.1282 20.9069 31.9025 20.9069 33.064C20.9069 34.2256 21.6812 34.9998 22.8041 34.9998C23.3461 34.9998 23.8882 34.845 24.3142 34.4966L23.9269 33.9159C23.6172 34.1481 23.23 34.303 22.8429 34.303C22.3396 34.303 21.8362 34.0707 21.72 33.4123H24.469V33.1028C24.5078 31.9025 23.8108 31.1282 22.7653 31.1282H22.7655ZM22.7655 31.825C23.2687 31.825 23.6173 32.1349 23.6946 32.7157H21.7588C21.8362 32.2123 22.1847 31.825 22.7655 31.825ZM42.9369 33.064V29.7344H42.1239V31.6702C41.8528 31.3219 41.4657 31.1282 40.9623 31.1282C39.917 31.1282 39.1039 31.9413 39.1039 33.064C39.1039 34.1868 39.917 34.9998 40.9623 34.9998C41.5045 34.9998 41.8916 34.8063 42.1239 34.4578V34.9224H42.9369V33.064ZM39.9558 33.064C39.9558 32.4058 40.3815 31.8638 41.0785 31.8638C41.7367 31.8638 42.2013 32.3672 42.2013 33.064C42.2013 33.7222 41.7367 34.2642 41.0785 34.2642C40.3815 34.2254 39.9558 33.7222 39.9558 33.064ZM12.7764 33.064V31.2056H11.9634V31.6702C11.6923 31.3219 11.3052 31.1282 10.8018 31.1282C9.75649 31.1282 8.94344 31.9413 8.94344 33.064C8.94344 34.1868 9.75649 34.9998 10.8018 34.9998C11.344 34.9998 11.7311 34.8063 11.9634 34.4578V34.9224H12.7764V33.064ZM9.75649 33.064C9.75649 32.4058 10.1824 31.8638 10.8792 31.8638C11.5374 31.8638 12.0022 32.3672 12.0022 33.064C12.0022 33.7222 11.5374 34.2642 10.8792 34.2642C10.1824 34.2254 9.75649 33.7222 9.75649 33.064Z" fill="black"/>
<path d="M16.4551 2.98096H28.6508V24.8947H16.4551V2.98096Z" fill="#FF5F00"/>
<path d="M17.2291 13.9381C17.2291 9.48571 19.3198 5.53651 22.5332 2.98113C20.1716 1.12275 17.1905 0 13.9383 0C6.23333 0 0 6.23333 0 13.9381C0 21.6427 6.23333 27.8762 13.9381 27.8762C17.1903 27.8762 20.1714 26.7534 22.5332 24.8949C19.3198 22.3783 17.2291 18.3905 17.2291 13.9381Z" fill="#EB001B"/>
<path d="M45.1054 13.9381C45.1054 21.6427 38.8721 27.8762 31.1673 27.8762C27.9151 27.8762 24.934 26.7534 22.5723 24.8949C25.8245 22.3397 27.8765 18.3905 27.8765 13.9381C27.8765 9.48571 25.7857 5.53651 22.5723 2.98113C24.9338 1.12275 27.9151 0 31.1673 0C38.8721 0 45.1056 6.27213 45.1056 13.9381H45.1054Z" fill="#F79E1B"/>
</svg>
