<svg width="46" height="46" viewBox="0 0 46 46" fill="none" xmlns="http://www.w3.org/2000/svg">
<rect opacity="0.16" x="1.5" y="1.5" width="43" height="43" rx="21.5" fill="#22C55E" stroke="white" stroke-width="3"/>
<path d="M26.763 15.5C29.6371 15.5 31.3334 17.1538 31.3334 19.9848H27.8074V20.0137C26.171 20.0137 24.8445 21.3071 24.8445 22.9025C24.8445 24.4979 26.171 25.7913 27.8074 25.7913H31.3334V26.0513C31.3334 28.8462 29.6371 30.5 26.763 30.5H19.2371C16.363 30.5 14.6667 28.8462 14.6667 26.0513V19.9487C14.6667 17.1538 16.363 15.5 19.2371 15.5H26.763ZM30.7111 21.227C31.0548 21.227 31.3334 21.4986 31.3334 21.8337V23.9425C31.3294 24.2759 31.0531 24.5452 30.7111 24.5491H27.8741C27.0457 24.56 26.3213 24.007 26.1334 23.2203C26.0393 22.7319 26.1714 22.228 26.4942 21.8435C26.8171 21.4591 27.2978 21.2334 27.8074 21.227H30.7111ZM28.2074 22.202H27.9334C27.7651 22.2 27.603 22.2639 27.4833 22.3792C27.3637 22.4945 27.2963 22.6518 27.2963 22.8158C27.2963 23.16 27.5803 23.4402 27.9334 23.4441H28.2074C28.5593 23.4441 28.8445 23.1661 28.8445 22.8231C28.8445 22.48 28.5593 22.202 28.2074 22.202ZM23.3185 18.7427H18.6148C18.2659 18.7426 17.9819 19.0163 17.9778 19.3565C17.9778 19.7007 18.2618 19.9809 18.6148 19.9848H23.3185C23.6704 19.9848 23.9556 19.7068 23.9556 19.3637C23.9556 19.0207 23.6704 18.7427 23.3185 18.7427Z" fill="#22C55E"/>
</svg>
