<svg width="20" height="15" viewBox="0 0 20 15" fill="none" xmlns="http://www.w3.org/2000/svg">
<path d="M3 12C3 12.5304 3.21071 13.0391 3.58579 13.4142C3.96086 13.7893 4.46957 14 5 14C5.53043 14 6.03914 13.7893 6.41421 13.4142C6.78929 13.0391 7 12.5304 7 12C7 11.4696 6.78929 10.9609 6.41421 10.5858C6.03914 10.2107 5.53043 10 5 10C4.46957 10 3.96086 10.2107 3.58579 10.5858C3.21071 10.9609 3 11.4696 3 12Z" stroke="#016A70" stroke-width="2" stroke-linecap="round" stroke-linejoin="round"/>
<path d="M13 12C13 12.5304 13.2107 13.0391 13.5858 13.4142C13.9609 13.7893 14.4696 14 15 14C15.5304 14 16.0391 13.7893 16.4142 13.4142C16.7893 13.0391 17 12.5304 17 12C17 11.4696 16.7893 10.9609 16.4142 10.5858C16.0391 10.2107 15.5304 10 15 10C14.4696 10 13.9609 10.2107 13.5858 10.5858C13.2107 10.9609 13 11.4696 13 12Z" stroke="#016A70" stroke-width="2" stroke-linecap="round" stroke-linejoin="round"/>
<path d="M3 12H1V6M1 6L3 1H12L16 6M1 6H16M16 6H17C17.5304 6 18.0391 6.21071 18.4142 6.58579C18.7893 6.96086 19 7.46957 19 8V12H17M13 12H7M10 6V1" stroke="#016A70" stroke-width="2" stroke-linecap="round" stroke-linejoin="round"/>
</svg>
