<svg width="30" height="35" viewBox="0 0 30 35" fill="none" xmlns="http://www.w3.org/2000/svg">
<mask id="path-1-inside-1_1471_3144" fill="white">
<path d="M25.254 2.63911C23.6334 0.791931 20.7038 0 16.9561 0H6.07911C5.70831 1.37299e-05 5.34967 0.132303 5.06768 0.373085C4.78569 0.613866 4.59884 0.947345 4.54073 1.31357L0.0117528 30.0374C-0.0782685 30.6038 0.360323 31.1168 0.934412 31.1168H7.64948L9.33593 20.4199L9.28359 20.7549C9.40374 19.9988 10.0504 19.4411 10.8162 19.4411H14.0071C20.2758 19.4411 25.1843 16.8949 26.6181 9.52934C26.6607 9.3115 26.6976 9.09947 26.7295 8.89233C26.5485 8.79649 26.5485 8.79649 26.7295 8.89233C27.1564 6.16994 26.7265 4.31683 25.254 2.63911Z"/>
</mask>
<path d="M25.254 2.63911C23.6334 0.791931 20.7038 0 16.9561 0H6.07911C5.70831 1.37299e-05 5.34967 0.132303 5.06768 0.373085C4.78569 0.613866 4.59884 0.947345 4.54073 1.31357L0.0117528 30.0374C-0.0782685 30.6038 0.360323 31.1168 0.934412 31.1168H7.64948L9.33593 20.4199L9.28359 20.7549C9.40374 19.9988 10.0504 19.4411 10.8162 19.4411H14.0071C20.2758 19.4411 25.1843 16.8949 26.6181 9.52934C26.6607 9.3115 26.6976 9.09947 26.7295 8.89233C26.5485 8.79649 26.5485 8.79649 26.7295 8.89233C27.1564 6.16994 26.7265 4.31683 25.254 2.63911Z" fill="#27346A"/>
<path d="M6.07911 0V-1H6.07908L6.07911 0ZM4.54073 1.31357L3.55308 1.15684L3.55293 1.15782L4.54073 1.31357ZM0.0117528 30.0374L0.999358 30.1944L0.999549 30.1932L0.0117528 30.0374ZM7.64948 31.1168V32.1168H8.50418L8.63728 31.2725L7.64948 31.1168ZM9.33593 20.4199L10.3239 20.5743L8.34813 20.2642L9.33593 20.4199ZM9.28359 20.7549L8.29558 20.6005L10.2712 20.9118L9.28359 20.7549ZM26.6181 9.52934L25.6367 9.33756L25.6366 9.33826L26.6181 9.52934ZM26.7295 8.89233L27.7178 9.04439L27.826 8.34144L27.1974 8.0086L26.7295 8.89233ZM26.7295 8.89233L26.2615 9.77606L27.5002 10.4321L27.7174 9.04727L26.7295 8.89233ZM26.0057 1.97961C24.0889 -0.205144 20.7771 -1 16.9561 -1V1C20.6306 1 23.1778 1.78901 24.5023 3.29861L26.0057 1.97961ZM16.9561 -1H6.07911V1H16.9561V-1ZM6.07908 -1C5.47023 -0.999977 4.88135 -0.782761 4.41833 -0.387404L5.71703 1.13357C5.81799 1.04737 5.94639 1 6.07915 1L6.07908 -1ZM4.41833 -0.387404C3.95531 0.00795281 3.64851 0.555517 3.55309 1.15684L5.52837 1.47029C5.54918 1.33917 5.61607 1.21978 5.71703 1.13357L4.41833 -0.387404ZM3.55293 1.15782L-0.976044 29.8817L0.999549 30.1932L5.52852 1.46931L3.55293 1.15782ZM-0.975852 29.8805C-1.16263 31.0557 -0.25301 32.1168 0.934412 32.1168V30.1168C0.973656 30.1168 1.0061 30.152 0.999357 30.1944L-0.975852 29.8805ZM0.934412 32.1168H7.64948V30.1168H0.934412V32.1168ZM8.63728 31.2725L10.3237 20.5757L8.34813 20.2642L6.66169 30.961L8.63728 31.2725ZM8.34792 20.2656L8.29558 20.6005L10.2716 20.9093L10.3239 20.5743L8.34792 20.2656ZM10.2712 20.9118C10.315 20.6362 10.5473 20.4411 10.8162 20.4411V18.4411C9.55351 18.4411 8.49247 19.3614 8.29598 20.598L10.2712 20.9118ZM10.8162 20.4411H14.0071V18.4411H10.8162V20.4411ZM14.0071 20.4411C17.2651 20.4411 20.2884 19.7808 22.7052 18.0623C25.1433 16.3286 26.8438 13.6037 27.5997 9.72042L25.6366 9.33826C24.9587 12.8205 23.488 15.0516 21.5462 16.4323C19.5831 17.8283 17.0179 18.4411 14.0071 18.4411V20.4411ZM27.5996 9.72112C27.6447 9.49004 27.6839 9.26477 27.7178 9.04439L25.7411 8.74027C25.7112 8.93417 25.6767 9.13295 25.6367 9.33756L27.5996 9.72112ZM27.1974 8.0086C27.1748 7.9966 27.1869 8.00301 27.1656 7.99175C27.088 7.95066 27.2142 8.0175 27.1381 7.97715C27.1347 7.97538 27.1167 7.96582 27.1147 7.9648C27.0753 7.94393 27.1336 7.97481 27.0956 7.95469C27.075 7.94374 27.0852 7.94917 27.0702 7.94121C27.0617 7.93672 27.0746 7.94355 27.0665 7.93925C27.0654 7.93869 27.0645 7.93821 27.0638 7.93784C27.063 7.93741 27.0627 7.93724 27.0622 7.937C27.0618 7.93679 27.0622 7.93695 27.0618 7.93679C27.0618 7.93676 27.0618 7.93675 27.0617 7.93674C27.0617 7.93674 27.0617 7.93673 27.0617 7.93673C27.0617 7.93673 27.0617 7.93673 27.0617 7.93672C27.0617 7.93672 27.0617 7.93672 27.0617 7.93672C27.0617 7.93672 27.0617 7.93672 26.5937 8.82045C26.1257 9.70419 26.1257 9.70419 26.1257 9.70419C26.1257 9.70419 26.1257 9.70419 26.1257 9.70419C26.1258 9.70422 26.1257 9.70417 26.1258 9.7042C26.1258 9.70421 26.1258 9.70421 26.1258 9.70421C26.1258 9.70422 26.1258 9.70422 26.1258 9.70423C26.1259 9.70425 26.1258 9.70422 26.1259 9.70426C26.1308 9.70686 26.1211 9.70173 26.126 9.70434C26.126 9.70435 26.1261 9.70436 26.1261 9.70437C26.1261 9.70438 26.1261 9.70439 26.1261 9.7044C26.1262 9.70441 26.1262 9.70442 26.1262 9.70443C26.1262 9.70444 26.1262 9.70445 26.1263 9.70447C26.1267 9.70472 26.1264 9.70452 26.1269 9.70482C26.1273 9.70502 26.127 9.70483 26.1274 9.70505C26.1274 9.70507 26.1274 9.70509 26.1275 9.70511C26.1275 9.70513 26.1276 9.70515 26.1276 9.70517C26.1276 9.70519 26.1277 9.70522 26.1277 9.70524C26.1278 9.70526 26.1278 9.70529 26.1278 9.70531C26.1367 9.71 26.1239 9.70324 26.1342 9.70868C26.1384 9.71088 26.1498 9.71696 26.1597 9.72215C26.1615 9.72311 26.16 9.72233 26.1618 9.7233C26.1624 9.72363 26.1634 9.72413 26.164 9.72447C26.1776 9.73167 26.155 9.71968 26.1687 9.72693C26.1779 9.7318 26.1692 9.7272 26.1787 9.73226C26.2034 9.74533 26.176 9.7308 26.2021 9.74462C26.2127 9.75026 26.2176 9.75283 26.2296 9.75922C26.238 9.76364 26.2517 9.77089 26.2615 9.77606L27.1974 8.0086C27.1748 7.9966 27.1869 8.00301 27.1656 7.99175C27.088 7.95066 27.2142 8.0175 27.1381 7.97715C27.1347 7.97538 27.1167 7.96582 27.1147 7.9648C27.0753 7.94393 27.1336 7.97481 27.0956 7.95469C27.075 7.94374 27.0852 7.94917 27.0702 7.94121C27.0617 7.93672 27.0746 7.94355 27.0665 7.93925C27.0654 7.93869 27.0645 7.93821 27.0638 7.93784C27.063 7.93741 27.0627 7.93724 27.0622 7.937C27.0618 7.93679 27.0622 7.93695 27.0618 7.93679C27.0618 7.93676 27.0618 7.93675 27.0617 7.93674C27.0617 7.93674 27.0617 7.93673 27.0617 7.93673C27.0617 7.93673 27.0617 7.93673 27.0617 7.93672C27.0617 7.93672 27.0617 7.93672 27.0617 7.93672C27.0617 7.93672 27.0617 7.93672 26.5937 8.82045C26.1257 9.70419 26.1257 9.70419 26.1257 9.70419C26.1257 9.70419 26.1257 9.70419 26.1257 9.70419C26.1258 9.70422 26.1257 9.70417 26.1258 9.7042C26.1258 9.70421 26.1258 9.70421 26.1258 9.70421C26.1258 9.70422 26.1258 9.70422 26.1258 9.70423C26.1259 9.70425 26.1258 9.70422 26.1259 9.70426C26.1308 9.70686 26.1211 9.70173 26.126 9.70434C26.126 9.70435 26.1261 9.70436 26.1261 9.70437C26.1261 9.70438 26.1261 9.70439 26.1261 9.7044C26.1262 9.70441 26.1262 9.70442 26.1262 9.70443C26.1262 9.70444 26.1262 9.70445 26.1263 9.70447C26.1267 9.70472 26.1264 9.70452 26.1269 9.70482C26.1273 9.70502 26.127 9.70483 26.1274 9.70505C26.1274 9.70507 26.1274 9.70509 26.1275 9.70511C26.1275 9.70513 26.1276 9.70515 26.1276 9.70517C26.1276 9.70519 26.1277 9.70522 26.1277 9.70524C26.1278 9.70526 26.1278 9.70529 26.1278 9.70531C26.1367 9.71 26.1239 9.70324 26.1342 9.70868C26.1384 9.71088 26.1498 9.71696 26.1597 9.72215C26.1615 9.72311 26.16 9.72233 26.1618 9.7233C26.1624 9.72363 26.1634 9.72413 26.164 9.72447C26.1776 9.73167 26.155 9.71968 26.1687 9.72693C26.1779 9.7318 26.1692 9.7272 26.1787 9.73226C26.2034 9.74533 26.176 9.7308 26.2021 9.74462C26.2127 9.75026 26.2176 9.75283 26.2296 9.75922C26.238 9.76364 26.2517 9.77089 26.2615 9.77606L27.1974 8.0086ZM27.7174 9.04727C27.9436 7.60494 27.9544 6.32313 27.6775 5.14516C27.3977 3.9546 26.8374 2.92719 26.0056 1.97945L24.5024 3.29877C25.1431 4.02876 25.5341 4.76676 25.7306 5.60278C25.93 6.4514 25.9423 7.45733 25.7415 8.73739L27.7174 9.04727Z" fill="#E8E8E8" mask="url(#path-1-inside-1_1471_3144)"/>
<path d="M11.6892 7.46076L11.6904 7.4602C11.9412 7.34077 12.2156 7.27887 12.4934 7.27904M11.6892 7.46076L12.4931 7.77904M11.6892 7.46076C11.4171 7.59121 11.1807 7.78584 11.0005 8.02788C10.8202 8.26992 10.7015 8.55214 10.6544 8.85024L10.6544 8.85027L7.22215 30.6159H0.933482C0.667269 30.6159 0.463797 30.378 0.505576 30.1147L0.505651 30.1143M11.6892 7.46076L0.505651 30.1143M12.4934 7.27904L12.4931 7.77904M12.4934 7.27904H12.4931V7.77904M12.4934 7.27904H21.0204C22.051 7.27904 23.0198 7.34604 23.9116 7.48953M12.4931 7.77904H21.0204C22.0302 7.77904 22.9721 7.84476 23.8327 7.98328M23.9116 7.48953C23.9115 7.48953 23.9115 7.48952 23.9114 7.48951L23.8327 7.98328M23.9116 7.48953C24.1623 7.52952 24.4118 7.57724 24.6596 7.63265L23.8327 7.98328M23.9116 7.48953C23.9118 7.48956 23.912 7.4896 23.9122 7.48963L23.8327 7.98328M0.505651 30.1143L5.03454 1.39197C5.03455 1.39194 5.03455 1.39191 5.03456 1.39188C5.11615 0.878251 5.55873 0.5 6.07818 0.5H16.9561C20.6671 0.5 23.4047 1.29042 24.8782 2.96897L0.505651 30.1143ZM26.2584 8.66482C26.4209 8.73597 26.578 8.81168 26.7296 8.89233C26.7576 8.71368 26.7819 8.53878 26.8025 8.36744C26.6473 8.28999 26.4877 8.21738 26.3241 8.14923C26.3061 8.31682 26.2842 8.48861 26.2584 8.66482Z" fill="#27346A" stroke="#E8E8E8"/>
<path d="M22.4159 17.6541C24.7146 16.0194 26.3512 13.4413 27.0946 9.69895C27.4011 9.91369 27.6713 10.1527 27.904 10.4175C29.1414 11.8278 29.4324 13.8862 28.9217 16.5116C28.3139 19.6328 26.9842 21.677 25.1926 22.9511C23.3903 24.2328 21.0605 24.7778 18.3806 24.7778H17.5334H17.5332C17.09 24.778 16.6613 24.9363 16.3243 25.2242C15.989 25.5107 15.7664 25.9069 15.6959 26.3421L15.6282 26.7102L15.628 26.7101L15.6261 26.7227L14.5604 33.4763L14.5068 33.7568L14.5053 33.7646L14.5041 33.7725C14.472 33.9752 14.3687 34.1598 14.2127 34.2931C14.0567 34.4264 13.8583 34.4997 13.6531 34.4998C13.653 34.4998 13.653 34.4998 13.653 34.4998H7.99245C7.7987 34.4998 7.64938 34.3256 7.67985 34.133L7.67988 34.1328L9.77793 20.8326L9.77796 20.8324C9.85901 20.3173 10.2981 19.9409 10.8156 19.9409H14.0075C17.2037 19.9409 20.1125 19.2922 22.4159 17.6541Z" fill="#2790C3" stroke="#E8E8E8"/>
<mask id="path-5-inside-2_1471_3144" fill="white">
<path d="M25.2285 8.29393C25.005 8.22865 24.7793 8.17085 24.5518 8.12064C24.3137 8.06828 24.0742 8.02275 23.8334 7.98409C22.9718 7.84464 22.0307 7.77881 21.02 7.77881H12.4937C12.2902 7.77835 12.0892 7.82404 11.906 7.91245C11.7066 8.00759 11.5335 8.14989 11.4016 8.32701C11.2697 8.50414 11.1829 8.71075 11.1488 8.92897L9.33652 20.4198L9.28418 20.7548C9.40339 19.9987 10.0501 19.441 10.8159 19.441H14.0079C20.2765 19.441 25.1849 16.8948 26.6187 9.52923C26.6614 9.31138 26.6972 9.10029 26.7302 8.89221C26.367 8.70054 25.974 8.53492 25.5508 8.39454C25.444 8.35913 25.3366 8.32559 25.2286 8.29393"/>
</mask>
<path d="M25.2285 8.29393C25.005 8.22865 24.7793 8.17085 24.5518 8.12064C24.3137 8.06828 24.0742 8.02275 23.8334 7.98409C22.9718 7.84464 22.0307 7.77881 21.02 7.77881H12.4937C12.2902 7.77835 12.0892 7.82404 11.906 7.91245C11.7066 8.00759 11.5335 8.14989 11.4016 8.32701C11.2697 8.50414 11.1829 8.71075 11.1488 8.92897L9.33652 20.4198L9.28418 20.7548C9.40339 19.9987 10.0501 19.441 10.8159 19.441H14.0079C20.2765 19.441 25.1849 16.8948 26.6187 9.52923C26.6614 9.31138 26.6972 9.10029 26.7302 8.89221C26.367 8.70054 25.974 8.53492 25.5508 8.39454C25.444 8.35913 25.3366 8.32559 25.2286 8.29393" fill="#1F264F"/>
<path d="M24.5518 8.12064L24.7675 7.14416L24.7666 7.14397L24.5518 8.12064ZM23.8334 7.98409L23.6737 8.97125L23.6749 8.97145L23.8334 7.98409ZM12.4937 7.77881L12.4914 8.77881H12.4937V7.77881ZM11.906 7.91245L12.3368 8.81491L12.3404 8.81314L11.906 7.91245ZM11.1488 8.92897L12.1366 9.08476L12.1368 9.08332L11.1488 8.92897ZM9.33652 20.4198L8.34873 20.264L8.34851 20.2654L9.33652 20.4198ZM9.28418 20.7548L8.29617 20.6004L10.272 20.9105L9.28418 20.7548ZM26.6187 9.52923L25.6374 9.33694L25.6372 9.33815L26.6187 9.52923ZM26.7302 8.89221L27.7179 9.04846L27.8297 8.34183L27.197 8.00786L26.7302 8.89221ZM25.5508 8.39454L25.8656 7.44539L25.8655 7.44534L25.5508 8.39454ZM25.5088 7.33402C25.2639 7.2625 25.0166 7.19917 24.7675 7.14416L24.3362 9.09712C24.5419 9.14253 24.746 9.1948 24.9482 9.25384L25.5088 7.33402ZM24.7666 7.14397C24.5098 7.08751 24.2515 7.03842 23.992 6.99674L23.6749 8.97145C23.8968 9.00708 24.1176 9.04905 24.3371 9.09731L24.7666 7.14397ZM23.9932 6.99694C23.0686 6.84728 22.0727 6.77881 21.02 6.77881V8.77881C21.9886 8.77881 22.8751 8.842 23.6737 8.97125L23.9932 6.99694ZM21.02 6.77881H12.4937V8.77881H21.02V6.77881ZM12.4959 6.77881C12.1412 6.77801 11.791 6.85766 11.4715 7.01176L12.3404 8.81314C12.3875 8.79043 12.4391 8.77869 12.4914 8.77881L12.4959 6.77881ZM11.4752 7.01C11.1292 7.17517 10.8286 7.42218 10.5996 7.72966L12.2036 8.92437C12.2384 8.8776 12.2841 8.84002 12.3368 8.8149L11.4752 7.01ZM10.5996 7.72966C10.3706 8.03714 10.22 8.39581 10.1608 8.77461L12.1368 9.08332C12.1458 9.0257 12.1687 8.97114 12.2036 8.92437L10.5996 7.72966ZM10.161 8.77318L8.34873 20.264L10.3243 20.5756L12.1366 9.08476L10.161 8.77318ZM8.34851 20.2654L8.29617 20.6004L10.2722 20.9092L10.3245 20.5742L8.34851 20.2654ZM10.272 20.9105C10.3152 20.6361 10.5467 20.441 10.8159 20.441V18.441C9.55344 18.441 8.49155 19.3612 8.29638 20.599L10.272 20.9105ZM10.8159 20.441H14.0079V18.441H10.8159V20.441ZM14.0079 20.441C17.2658 20.441 20.2891 19.7807 22.7059 18.0622C25.1439 16.3285 26.8444 13.6036 27.6003 9.7203L25.6372 9.33815C24.9593 12.8204 23.4886 15.0514 21.5468 16.4322C19.5838 17.8282 17.0186 18.441 14.0079 18.441V20.441ZM27.6001 9.72151C27.6459 9.48778 27.6838 9.26387 27.7179 9.04846L25.7424 8.73597C25.7107 8.93671 25.677 9.13499 25.6374 9.33694L27.6001 9.72151ZM27.197 8.00786C26.7807 7.78813 26.3363 7.60151 25.8656 7.44539L25.236 9.34369C25.6118 9.46833 25.9534 9.61296 26.2633 9.77657L27.197 8.00786ZM25.8655 7.44534C25.7476 7.40627 25.6291 7.36927 25.51 7.33434L24.9472 9.25352C25.0441 9.28192 25.1404 9.31199 25.2361 9.34374L25.8655 7.44534Z" fill="#E8E8E8" mask="url(#path-5-inside-2_1471_3144)"/>
</svg>
