<svg width="22" height="22" viewBox="0 0 22 22" fill="none" xmlns="http://www.w3.org/2000/svg">
<path d="M1.07982 3.595C1.87982 0.135 7.08982 0.135 7.87982 3.595C8.34982 5.625 7.05982 7.345 5.93982 8.415C5.11982 9.195 3.82982 9.185 3.00982 8.415C1.89982 7.345 0.609821 5.625 1.07982 3.595Z" stroke="white" stroke-width="1.5"/>
<path d="M14.0798 15.595C14.8798 12.135 20.1198 12.135 20.9198 15.595C21.3898 17.625 20.0998 19.345 18.9698 20.415C18.1498 21.195 16.8498 21.185 16.0298 20.415C14.8998 19.345 13.6098 17.625 14.0798 15.595Z" stroke="white" stroke-width="1.5"/>
<path d="M11.0095 3.99512H13.6895C15.5395 3.99512 16.3995 6.28512 15.0095 7.50512L7.01947 14.4951C5.62947 15.7051 6.48947 17.9951 8.32947 17.9951H11.0095" stroke="white" stroke-width="1.5" stroke-linecap="round" stroke-linejoin="round"/>
<path d="M4.49549 4.49512H4.50705" stroke="white" stroke-width="2" stroke-linecap="round" stroke-linejoin="round"/>
<path d="M17.4955 16.4951H17.507" stroke="white" stroke-width="2" stroke-linecap="round" stroke-linejoin="round"/>
</svg>
